<svg width="40" height="40" viewBox="0 0 40 40" fill="none" xmlns="http://www.w3.org/2000/svg">
<path d="M10.1043 23.4899L9.1307 23.7183L10.1043 23.4899ZM10.1043 16.5101L11.0779 16.7385L10.1043 16.5101ZM29.8956 16.5101L28.922 16.7385L29.8956 16.5101ZM29.8956 23.4899L28.922 23.2615L29.8956 23.4899ZM23.4898 29.8957L23.7182 30.8692L23.4898 29.8957ZM16.5101 29.8957L16.2817 30.8692L16.5101 29.8957ZM16.5101 10.1043L16.2817 9.13076L16.5101 10.1043ZM23.4898 10.1043L23.2615 11.0779L23.4898 10.1043ZM20 9.7005L20 10.7005L20 9.7005ZM21 5C21 4.44772 20.5523 4 20 4C19.4477 4 19 4.44772 19 5H21ZM15.6429 5C15.6429 4.44772 15.1951 4 14.6429 4C14.0906 4 13.6429 4.44772 13.6429 5H15.6429ZM26.357 5C26.357 4.44772 25.9093 4 25.357 4C24.8048 4 24.357 4.44772 24.357 5H26.357ZM9.70045 20H10.7004H9.70045ZM5 19C4.44772 19 4 19.4477 4 20C4 20.5523 4.44772 21 5 21V19ZM5 13.6429C4.44772 13.6429 4 14.0906 4 14.6429C4 15.1951 4.44772 15.6429 5 15.6429V13.6429ZM10.7774 25.3571L11.6726 24.9116L10.7774 25.3571ZM5 24.3571C4.44772 24.3571 4 24.8049 4 25.3571C4 25.9094 4.44772 26.3571 5 26.3571V24.3571ZM19 35C19 35.5523 19.4477 36 20 36C20.5523 36 21 35.5523 21 35H19ZM14.6429 29.2226L15.0884 28.3274L14.6429 29.2226ZM13.6429 35C13.6429 35.5523 14.0906 36 14.6429 36C15.1951 36 15.6429 35.5523 15.6429 35H13.6429ZM24.357 35C24.357 35.5523 24.8047 36 25.357 36C25.9093 36 26.357 35.5523 26.357 35H24.357ZM35 21C35.5523 21 36 20.5523 36 20C36 19.4477 35.5523 19 35 19V21ZM35 15.6429C35.5523 15.6429 36 15.1951 36 14.6429C36 14.0906 35.5523 13.6429 35 13.6429V15.6429ZM29.2225 25.3572L28.3273 24.9116L29.2225 25.3572ZM35 26.3572C35.5523 26.3572 36 25.9094 36 25.3572C36 24.8049 35.5523 24.3572 35 24.3572V26.3572ZM16.7384 11.0779C17.8111 10.8263 18.9055 10.7005 20 10.7005L20 8.7005C18.7523 8.7005 17.5045 8.84392 16.2817 9.13076L16.7384 11.0779ZM20 10.7005C21.0944 10.7005 22.1889 10.8263 23.2615 11.0779L23.7182 9.13076C22.4954 8.84392 21.2477 8.70051 20 8.7005L20 10.7005ZM21 9.7005V5H19V9.7005H21ZM16.2817 9.13076C15.5508 9.30221 14.8525 9.55603 14.1973 9.88213L15.0884 11.6726C15.6067 11.4147 16.1593 11.2137 16.7384 11.0779L16.2817 9.13076ZM15.6429 10.7774V5H13.6429V10.7774H15.6429ZM23.2615 11.0779C23.8406 11.2137 24.3932 11.4147 24.9115 11.6726L25.8026 9.88213C25.1474 9.55603 24.4491 9.30221 23.7182 9.13076L23.2615 11.0779ZM26.357 10.7774V5H24.357V10.7774H26.357ZM11.0779 23.2615C10.8262 22.1889 10.7004 21.0945 10.7004 20L8.70045 20C8.70045 21.2477 8.84387 22.4954 9.1307 23.7183L11.0779 23.2615ZM10.7004 20C10.7004 18.9055 10.8262 17.8111 11.0779 16.7385L9.1307 16.2817C8.84387 17.5046 8.70045 18.7523 8.70045 20L10.7004 20ZM9.70045 19H5V21H9.70045V19ZM14.1973 9.88213C12.3288 10.8121 10.812 12.3288 9.88211 14.1973L11.6726 15.0884C12.4086 13.6096 13.6096 12.4086 15.0884 11.6726L14.1973 9.88213ZM9.88211 14.1973C9.55599 14.8525 9.30216 15.5508 9.1307 16.2817L11.0779 16.7385C11.2137 16.1593 11.4146 15.6067 11.6726 15.0884L9.88211 14.1973ZM10.7774 13.6429H5V15.6429H10.7774V13.6429ZM11.6726 24.9116C11.4146 24.3933 11.2137 23.8407 11.0779 23.2615L9.1307 23.7183C9.30216 24.4492 9.55599 25.1475 9.88211 25.8027L11.6726 24.9116ZM10.7774 24.3571H5V26.3571H10.7774V24.3571ZM23.2615 28.9221C22.1889 29.1737 21.0944 29.2995 20 29.2995L20 31.2995C21.2477 31.2995 22.4954 31.1561 23.7182 30.8692L23.2615 28.9221ZM20 29.2995C18.9055 29.2995 17.8111 29.1737 16.7384 28.9221L16.2817 30.8692C17.5045 31.1561 18.7523 31.2995 20 31.2995L20 29.2995ZM19 30.2995V35H21V30.2995H19ZM16.7384 28.9221C16.1593 28.7863 15.6067 28.5853 15.0884 28.3274L14.1973 30.1179C14.8525 30.444 15.5508 30.6978 16.2817 30.8692L16.7384 28.9221ZM15.0884 28.3274C13.6096 27.5914 12.4086 26.3904 11.6726 24.9116L9.88211 25.8027C10.812 27.6712 12.3288 29.1879 14.1973 30.1179L15.0884 28.3274ZM13.6429 29.2226V35H15.6429V29.2226H13.6429ZM23.7182 30.8692C24.4491 30.6978 25.1474 30.444 25.8026 30.1179L24.9115 28.3274C24.3932 28.5853 23.8406 28.7863 23.2615 28.9221L23.7182 30.8692ZM24.357 29.2226V35H26.357V29.2226H24.357ZM28.922 16.7385C29.1736 17.8111 29.2994 18.9055 29.2994 20L31.2994 20C31.2994 18.7523 31.156 17.5046 30.8692 16.2817L28.922 16.7385ZM29.2994 20C29.2994 21.0945 29.1736 22.1889 28.922 23.2615L30.8692 23.7183C31.156 22.4954 31.2994 21.2477 31.2994 20L29.2994 20ZM30.2994 21H35V19H30.2994V21ZM24.9115 11.6726C26.3903 12.4086 27.5913 13.6096 28.3273 15.0884L30.1178 14.1973C29.1878 12.3288 27.6711 10.8121 25.8026 9.88213L24.9115 11.6726ZM28.3273 15.0884C28.5852 15.6067 28.7862 16.1593 28.922 16.7385L30.8692 16.2817C30.6977 15.5508 30.4439 14.8525 30.1178 14.1973L28.3273 15.0884ZM29.2225 15.6429H35V13.6429H29.2225V15.6429ZM25.8026 30.1179C27.6711 29.1879 29.1878 27.6712 30.1178 25.8027L28.3273 24.9116C27.5913 26.3904 26.3903 27.5914 24.9115 28.3274L25.8026 30.1179ZM30.1178 25.8027C30.4439 25.1475 30.6977 24.4492 30.8692 23.7183L28.922 23.2615C28.7862 23.8407 28.5852 24.3933 28.3273 24.9116L30.1178 25.8027ZM29.2225 26.3572H35V24.3572H29.2225V26.3572Z" fill="#667389"/>
<path d="M16.3556 21.4002C16.1396 20.4792 16.1396 19.5208 16.3556 18.5998L14.4084 18.143C14.1219 19.3644 14.1219 20.6356 14.4084 21.857L16.3556 21.4002ZM23.6444 18.5998C23.8604 19.5208 23.8604 20.4792 23.6444 21.4002L25.5916 21.857C25.8781 20.6356 25.8781 19.3644 25.5916 18.143L23.6444 18.5998ZM21.4002 23.6444C20.4792 23.8604 19.5208 23.8604 18.5998 23.6444L18.143 25.5916C19.3644 25.8781 20.6356 25.8781 21.857 25.5916L21.4002 23.6444ZM18.5998 16.3556C19.5208 16.1396 20.4792 16.1396 21.4002 16.3556L21.857 14.4084C20.6356 14.1219 19.3644 14.1219 18.143 14.4084L18.5998 16.3556ZM18.5998 23.6444C17.4862 23.3832 16.6168 22.5138 16.3556 21.4002L14.4084 21.857C14.8431 23.71 16.29 25.1569 18.143 25.5916L18.5998 23.6444ZM21.857 25.5916C23.71 25.1569 25.1569 23.71 25.5916 21.857L23.6444 21.4002C23.3832 22.5138 22.5138 23.3832 21.4002 23.6444L21.857 25.5916ZM21.4002 16.3556C22.5138 16.6168 23.3832 17.4862 23.6444 18.5998L25.5916 18.143C25.1569 16.29 23.71 14.8431 21.857 14.4084L21.4002 16.3556ZM18.143 14.4084C16.29 14.8431 14.8431 16.29 14.4084 18.143L16.3556 18.5998C16.6168 17.4862 17.4862 16.6168 18.5998 16.3556L18.143 14.4084Z" fill="#667389"/>
</svg>
