<svg width="40" height="40" viewBox="0 0 40 40" fill="none" xmlns="http://www.w3.org/2000/svg">
<path d="M14.4612 20.625L15.2758 20.0449L14.4612 20.625ZM24.9111 20.5977L25.7097 21.1995L24.9111 20.5977ZM34.252 8.20375L33.4534 7.60187L34.252 8.20375ZM5.58393 8.16022L4.7694 8.74033L5.58393 8.16022ZM7.21301 6H32.6548V4H7.21301V6ZM33.4534 7.60187L24.1125 19.9958L25.7097 21.1995L35.0506 8.80562L33.4534 7.60187ZM4.7694 8.74033L13.6467 21.2051L15.2758 20.0449L6.39847 7.58011L4.7694 8.74033ZM23.1055 23.0052V31H25.1055V23.0052H23.1055ZM20.1055 34H19.2031V36H20.1055V34ZM16.2031 31V22.9454H14.2031V31H16.2031ZM19.2031 34C17.5462 34 16.2031 32.6569 16.2031 31H14.2031C14.2031 33.7614 16.4417 36 19.2031 36V34ZM23.1055 31C23.1055 32.6569 21.7623 34 20.1055 34V36C22.8669 36 25.1055 33.7614 25.1055 31H23.1055ZM13.6467 21.2051C14.0086 21.7132 14.2031 22.3216 14.2031 22.9454H16.2031C16.2031 21.9057 15.8789 20.8918 15.2758 20.0449L13.6467 21.2051ZM24.1125 19.9958C23.459 20.8629 23.1055 21.9193 23.1055 23.0052H25.1055C25.1055 22.3536 25.3176 21.7198 25.7097 21.1995L24.1125 19.9958ZM32.6548 6C33.48 6 33.95 6.94294 33.4534 7.60187L35.0506 8.80562C36.5405 6.82881 35.1302 4 32.6548 4V6ZM7.21301 4C4.7748 4 3.35497 6.7543 4.7694 8.74033L6.39847 7.58011C5.927 6.9181 6.40027 6 7.21301 6V4Z" fill="#667389"/>
</svg>
