<svg width="40" height="40" viewBox="0 0 40 40" fill="none" xmlns="http://www.w3.org/2000/svg">
<g id="Iconly/Light/Graph">
<g id="Graph">
<path id="Stroke 1" fill-rule="evenodd" clip-rule="evenodd" d="M28.7964 23.1486C29.921 23.1486 30.8648 24.0766 30.6929 25.1872C29.6841 31.7205 24.0911 36.5714 17.3455 36.5714C9.88237 36.5714 3.83325 30.5223 3.83325 23.0609C3.83325 16.9135 8.50343 11.1872 13.7613 9.89243C14.8911 9.61349 16.049 10.4082 16.049 11.5714C16.049 19.4521 16.314 21.4907 17.8104 22.5995C19.3069 23.7082 21.0666 23.1486 28.7964 23.1486Z" stroke="#667389" stroke-width="2" stroke-linecap="round" stroke-linejoin="round"/>
<path id="Stroke 3" fill-rule="evenodd" clip-rule="evenodd" d="M36.1541 16.586C36.2435 11.5228 30.0242 3.36144 22.4453 3.50179C21.8558 3.51231 21.3839 4.00354 21.3576 4.59126C21.1663 8.75442 21.4242 14.1492 21.5681 16.5948C21.612 17.3562 22.2102 17.9544 22.9698 17.9983C25.4839 18.1421 31.0751 18.3386 35.1786 17.7176C35.7365 17.6334 36.1453 17.1492 36.1541 16.586Z" stroke="#667389" stroke-width="2" stroke-linecap="round" stroke-linejoin="round"/>
</g>
</g>
</svg>
